# xmcd
#
# Track frame offsets: 
#        150
#        20241
#        39756
#        60241
#        80186
#        98977
#        114663
#        131722
#        146190
#        171748
#        191657
#        215158
#        239495
#        262522
#        283108
#
# Disc length: 4180 seconds
#
# Revision: 0
# Processed by: cddbd v1.5.2PL0 Copyright (c) Steve Scherf et al.
# Submitted via: ExactAudioCopy v1.0b3
#
DISCID=e910520f
DTITLE=Mick Abrahams -  Hoochie Coochie Man
DYEAR=2011
DGENRE=Blues
TTITLE0=Mick Abrahams - Hoochie Coochie Man
TTITLE1=Mick Abrahams - She's Into Something
TTITLE2=Mick Abrahams - Sunday Drivin'
TTITLE3=Mick Abrahams - What Am I Living For
TTITLE4=Mick Abrahams - Cornbread And Peas
TTITLE5=Mick Abrahams - Poor Boy
TTITLE6=Mick Abrahams - You Shook Me
TTITLE7=Mick Abrahams - Roadroller
TTITLE8=Mick Abrahams - Used To Being Down
TTITLE9=Mick Abrahams - Medication Blues
TTITLE10=Mick Abrahams - Three Days At Four
TTITLE11=Mick Abrahams - G.B.N.H.S. Blues
TTITLE12=Mick Abrahams - Take A Good Look Woman
TTITLE13=Mick Abrahams - I Ain't Never
TTITLE14=Mick Abrahams - Stormy Monday
EXTD=
EXTT0=
EXTT1=
EXTT2=
EXTT3=
EXTT4=
EXTT5=
EXTT6=
EXTT7=
EXTT8=
EXTT9=
EXTT10=
EXTT11=
EXTT12=
EXTT13=
EXTT14=
PLAYORDER=
